# xmcd
#
# Track frame offsets:
# 165
# 18078
# 38609
# 54565
# 69965
# 83107
# 95513
# 113943
# 130050
# 147882
# 160341
# 173689
# 193891
# 212417
# 227156
# 249385
# 261233
# 278417
# 301342
# 318081
#
# Disc length: 4383 seconds
#
#
# Revision: 0
# Processed by: cddbd v1.5.2PL0 Copyright (c) Steve Scherf et al.
# Submitted via: FreeRIP 2.96 
#
DISCID=05111d14
DTITLE=Zezé Di Camargo - Zezé Di Camargo (Canta Sozinho Seus Sucessos)
DYEAR=1900
DGENRE=Sertanejo
TTITLE0=01-Momentoa A Dois
TTITLE1=02-Correntes
TTITLE2=03-Faz Eu Perder O Juízo
TTITLE3=04-Quero Ter Você Comigo
TTITLE4=05-Direito Meu
TTITLE5=06-Canto A Saudade
TTITLE6=07-Gotas
TTITLE7=08-Casamento Natural
TTITLE8=09-Cama Vazia
TTITLE9=10-Minha Presa
TTITLE10=11-Chove Em Meu Coração
TTITLE11=12-Pra Te Esquecer Não Dá
TTITLE12=13-Sensação Do Meu Prazer
TTITLE13=14-Sabor De Mel
TTITLE14=15-Fim De Semana
TTITLE15=16-A Paixão É Pura Razão
TTITLE16=17-Você
TTITLE17=18-Nem Dormindo Consigo Te Esquecer
TTITLE18=19-Amor Natural
TTITLE19=20-Até Mais Ve
EXTD=Totalmente Inédito
EXTT0=
EXTT1=
EXTT2=
EXTT3=
EXTT4=
EXTT5=
EXTT6=
EXTT7=
EXTT8=
EXTT9=
EXTT10=
EXTT11=
EXTT12=
EXTT13=
EXTT14=
EXTT15=
EXTT16=
EXTT17=
EXTT18=
EXTT19=
PLAYORDER=
